<svg id="Vectorportal.com" xmlns="http://www.w3.org/2000/svg" viewBox="0 0 171.99 56.65"><defs><style>.cls-1,.cls-4{fill:#e43339;}.cls-2,.cls-3{fill:#fff;}.cls-3{stroke:#fff;stroke-miterlimit:10;}.cls-4{font-size:16px;font-family:CourierNewPS-BoldMT, Courier New;font-weight:700;}</style></defs><rect class="cls-1" y="3.65" width="171.99" height="53" rx="13"/><rect class="cls-1" width="171.99" height="53" rx="13"/><path class="cls-1" d="M138.84,66.65H54.5a13,13,0,0,0-13,13v27a13,13,0,0,0,13,13h84.34Z" transform="translate(-41.5 -63)"/><path class="cls-2" d="M171.67,63H54.5a13,13,0,0,0-13,13v27a13,13,0,0,0,13,13h84.43Z" transform="translate(-41.5 -63)"/><path class="cls-3" d="M175.16,88h0Z" transform="translate(-41.5 -63)"/><path class="cls-3" d="M175.16,91h0Z" transform="translate(-41.5 -63)"/><path class="cls-3" d="M175.16,93.83h0Z" transform="translate(-41.5 -63)"/><text class="cls-4" transform="translate(15.28 32.31)">ABOUT US</text></svg>