<svg id="Vectorportal.com" xmlns="http://www.w3.org/2000/svg" viewBox="0 0 171.99 56.65"><defs><style>.cls-1,.cls-3{fill:#e43339;}.cls-2{fill:#fff;}.cls-3{font-size:16px;font-family:CourierNewPS-BoldMT, Courier New;font-weight:700;}</style></defs><rect class="cls-1" y="3.65" width="171.99" height="53" rx="13"/><rect class="cls-1" width="171.99" height="53" rx="13"/><path class="cls-1" d="M138.84,66.65H54.5a13,13,0,0,0-13,13v27a13,13,0,0,0,13,13h84.34Z" transform="translate(-41.5 -63)"/><path class="cls-2" d="M171.67,63H54.5a13,13,0,0,0-13,13v27a13,13,0,0,0,13,13h84.43Z" transform="translate(-41.5 -63)"/><text class="cls-3" transform="translate(15.28 32.31)">ABOUT US</text><path class="cls-2" d="M184.6,75.77a.62.62,0,0,0-.34.13L170.81,86.62a.61.61,0,0,0-.1.84.58.58,0,0,0,.82.1l.81-.64v15.7a.59.59,0,0,0,.59.6H181a.6.6,0,0,0,.19,0H188a.6.6,0,0,0,.19,0h8.1a.59.59,0,0,0,.58-.6V86.92l.81.64a.58.58,0,0,0,.82-.1.6.6,0,0,0-.1-.84h0L194,83.07V78.73h-3.51v1.54L185,75.9A.58.58,0,0,0,184.6,75.77Zm0,1.36L195.73,86v16h-7V90.67h-8.19V102h-7V86Zm7,2.79h1.17v2.22l-1.17-.94Zm-9.94,12h5.85V102H181.7Z" transform="translate(-41.5 -63)"/></svg>