<svg id="Vectorportal.com" xmlns="http://www.w3.org/2000/svg" viewBox="0 0 171.99 56.65"><defs><style>.cls-1,.cls-3{fill:#e43339;}.cls-2{fill:#fff;}.cls-3{font-size:16px;font-family:CourierNewPS-BoldMT, Courier New;font-weight:700;}</style></defs><rect class="cls-1" y="3.65" width="171.99" height="53" rx="13"/><rect class="cls-1" width="171.99" height="53" rx="13"/><path class="cls-1" d="M138.84,66.65H54.5a13,13,0,0,0-13,13v27a13,13,0,0,0,13,13h84.34Z" transform="translate(-41.5 -63)"/><path class="cls-2" d="M171.67,63H54.5a13,13,0,0,0-13,13v27a13,13,0,0,0,13,13h84.43Z" transform="translate(-41.5 -63)"/><text class="cls-3" transform="translate(36.79 32.07)">HOME</text><path class="cls-2" d="M184.6,77.07a.61.61,0,0,0-.34.12L170.81,87.91a.61.61,0,0,0-.1.84.58.58,0,0,0,.82.11l.81-.65v15.71a.59.59,0,0,0,.59.6H181a.6.6,0,0,0,.19,0H188a.6.6,0,0,0,.19,0h8.1a.59.59,0,0,0,.58-.6V88.21l.81.65a.58.58,0,0,0,.82-.11.6.6,0,0,0-.1-.84h0L194,84.36V80h-3.51v1.55L185,77.19A.58.58,0,0,0,184.6,77.07Zm0,1.35,11.11,8.86v16h-7V92h-8.19v11.35h-7v-16Zm7,2.8h1.17v2.21l-1.17-.93ZM181.7,93.16h5.85v10.16H181.7Z" transform="translate(-41.5 -63)"/></svg>